<?xml version="1.0" standalone="no"?>
<!DOCTYPE svg PUBLIC "-//W3C//DTD SVG 20010904//EN"
 "http://www.w3.org/TR/2001/REC-SVG-20010904/DTD/svg10.dtd">
<svg version="1.0" xmlns="http://www.w3.org/2000/svg"
 width="704pt" height="704pt" viewBox="0 0 704 704"
 preserveAspectRatio="xMidYMid meet">
<g transform="translate(0,704) scale(0.1,-0.1)"
fill="#000000" stroke="none">
<path d="M4213 7029 c-63 -12 -141 -48 -208 -95 -228 -159 -295 -472 -156
-724 42 -76 146 -172 231 -214 41 -20 86 -38 100 -41 14 -3 39 -8 55 -11 51
-11 174 -6 233 11 196 55 345 207 396 406 13 48 13 198 2 252 -41 185 -202
353 -391 407 -50 15 -206 20 -262 9z"/>
<path d="M698 5824 c-214 -50 -365 -234 -374 -454 -3 -80 15 -188 36 -215 4
-5 11 -21 15 -34 9 -31 28 -54 100 -126 57 -57 91 -79 160 -106 90 -36 197
-42 295 -18 51 13 154 62 179 85 147 137 199 253 188 424 -14 205 -141 367
-342 435 -61 21 -186 25 -257 9z"/>
<path d="M3859 5823 c0 -5 -2 -15 -4 -23 -2 -8 -6 -33 -10 -55 -3 -22 -8 -48
-11 -58 -3 -10 -7 -30 -9 -45 -5 -33 -18 -92 -41 -177 -3 -11 -7 -30 -10 -42
-23 -113 -122 -378 -194 -523 -70 -141 -85 -167 -154 -263 -155 -217 -344
-366 -541 -424 -90 -26 -320 -40 -352 -20 -5 3 -20 8 -34 10 -127 24 -350 135
-488 243 -117 93 -185 159 -383 366 -14 15 -23 28 -20 28 4 0 2 4 -4 8 -6 4
-38 42 -72 84 -42 53 -63 74 -69 65 -4 -6 -15 -24 -23 -39 -34 -59 -93 -126
-165 -185 -21 -18 -37 -34 -34 -36 2 -2 38 -23 79 -47 82 -48 252 -159 260
-170 3 -4 12 -11 21 -16 53 -30 224 -180 316 -277 169 -178 289 -388 318 -556
3 -19 8 -38 11 -43 8 -12 7 -165 0 -218 -4 -25 -16 -74 -27 -110 -23 -73 -97
-220 -110 -220 -5 0 -9 -5 -9 -11 0 -26 -151 -189 -254 -274 -76 -63 -246
-177 -322 -215 -38 -19 -71 -38 -74 -41 -7 -9 -179 -89 -190 -89 -18 0 -10
-14 28 -55 45 -47 105 -144 122 -198 l12 -37 61 45 c170 125 475 315 505 315
7 0 12 5 12 10 0 6 4 10 9 10 5 0 43 16 85 35 78 37 262 101 331 117 101 22
288 30 360 15 72 -14 141 -39 157 -55 7 -7 16 -12 21 -12 25 0 127 -94 185
-170 15 -19 29 -37 32 -40 18 -18 113 -201 139 -268 10 -26 22 -56 26 -67 5
-11 9 -22 10 -25 0 -3 13 -45 28 -93 43 -138 86 -319 102 -437 4 -24 8 -47 10
-50 2 -3 6 -32 10 -65 7 -62 14 -115 20 -150 2 -11 4 -26 4 -32 1 -8 25 0 64
21 74 41 181 75 257 82 83 8 84 8 57 51 -93 149 -261 542 -282 658 -2 11 -6
31 -10 45 -38 154 -53 367 -34 485 12 74 57 214 75 236 8 8 14 20 14 25 0 17
85 122 130 162 46 40 153 112 174 117 6 1 25 8 41 15 17 7 32 14 35 15 3 0 28
8 55 18 28 9 68 19 90 23 22 3 42 7 45 9 5 3 41 8 155 21 41 5 345 5 354 0 3
-2 38 -7 76 -10 81 -8 130 -14 165 -21 14 -3 45 -8 70 -11 25 -3 54 -8 65 -11
11 -3 29 -7 40 -9 11 -1 56 -11 100 -22 44 -11 81 -19 83 -17 1 1 -2 24 -8 51
-15 81 -4 287 21 351 9 25 11 25 -70 8 -13 -2 -47 -7 -75 -9 -28 -3 -62 -8
-75 -11 -37 -7 -237 -19 -321 -18 -77 0 -238 11 -287 19 -209 34 -320 74 -454
160 -90 58 -188 166 -233 258 -60 122 -83 233 -80 400 1 77 4 152 7 166 2 14
8 45 11 70 4 25 14 72 23 105 8 33 16 67 18 75 10 47 19 76 28 88 5 6 7 12 3
12 -3 0 4 24 15 53 12 28 22 57 23 62 4 23 50 140 58 145 4 3 9 15 12 25 9 41
19 65 27 65 5 0 8 3 7 8 -1 4 7 25 17 47 10 22 19 42 20 45 0 3 9 21 19 40 11
19 39 73 64 120 25 47 61 112 82 145 52 87 53 92 21 93 -73 2 -305 88 -325
121 -8 12 -36 15 -37 4z"/>
<path d="M6000 3844 c-154 -40 -292 -151 -362 -294 -46 -93 -53 -128 -52 -255
1 -152 49 -269 155 -375 123 -124 309 -186 469 -157 25 5 56 10 70 13 62 11
172 77 239 143 67 66 134 178 145 241 3 14 5 25 6 25 6 0 11 51 12 115 1 83
-14 163 -43 224 -11 22 -19 46 -19 53 0 7 -4 13 -8 13 -4 0 -15 12 -24 28 -40
67 -190 192 -231 192 -8 0 -17 4 -19 9 -5 15 -134 39 -210 39 -40 0 -98 -7
-128 -14z"/>
<path d="M680 2373 c-35 -7 -69 -18 -74 -23 -6 -6 -18 -10 -28 -10 -10 0 -18
-4 -18 -10 0 -5 -6 -10 -12 -10 -22 0 -115 -92 -146 -145 -40 -67 -63 -150
-63 -227 1 -66 22 -163 40 -181 6 -6 11 -17 11 -24 0 -26 82 -115 143 -156
139 -93 331 -95 472 -6 198 124 261 389 142 592 -29 49 -115 137 -134 137 -7
0 -13 4 -13 9 0 7 -75 42 -100 47 -3 0 -16 4 -30 8 -46 13 -124 13 -190 -1z"/>
<path d="M3888 1104 c-2 -1 -18 -5 -35 -9 -18 -3 -43 -9 -57 -15 -15 -5 -26
-7 -26 -5 0 6 -86 -42 -137 -76 -46 -32 -133 -127 -133 -146 0 -7 -4 -13 -8
-13 -9 0 -52 -93 -52 -113 0 -8 -3 -17 -7 -21 -20 -20 -26 -201 -9 -274 41
-179 183 -338 352 -397 69 -25 97 -28 199 -28 402 1 656 427 478 801 -33 69
-158 197 -223 229 -40 19 -101 45 -107 44 -2 0 -17 5 -35 10 -32 10 -193 21
-200 13z"/>
</g>
</svg>
